<svg width="24" height="24" viewBox="0 0 24 24" fill="none" xmlns="http://www.w3.org/2000/svg">
<mask id="mask0_133_8548" style="mask-type:alpha" maskUnits="userSpaceOnUse" x="0" y="0" width="24" height="24">
<rect width="24" height="24" fill="#D9D9D9"/>
</mask>
<g mask="url(#mask0_133_8548)">
<path d="M10.8624 14.875L9.21244 22.1875C9.16244 22.4125 9.04994 22.5938 8.87494 22.7313C8.69994 22.8688 8.4916 22.9375 8.24994 22.9375C7.9416 22.9375 7.69369 22.8209 7.50619 22.5875C7.31869 22.3542 7.2541 22.0875 7.31244 21.7875L10.1374 7.46255C10.2291 7.00422 10.4458 6.6563 10.7874 6.4188C11.1291 6.1813 11.4833 6.06255 11.8499 6.06255C12.2166 6.06255 12.5604 6.1438 12.8812 6.3063C13.202 6.4688 13.4583 6.71255 13.6499 7.03755L14.6499 8.63755C14.9499 9.12088 15.3479 9.56255 15.8437 9.96255C16.3395 10.3625 16.9124 10.6625 17.5624 10.8625V9.75005C17.5624 9.55005 17.627 9.38547 17.7562 9.2563C17.8854 9.12713 18.0499 9.06255 18.2499 9.06255C18.4499 9.06255 18.6145 9.12713 18.7437 9.2563C18.8729 9.38547 18.9374 9.55005 18.9374 9.75005V22.25C18.9374 22.4501 18.8729 22.6146 18.7437 22.7438C18.6145 22.873 18.4499 22.9375 18.2499 22.9375C18.0499 22.9375 17.8854 22.873 17.7562 22.7438C17.627 22.6146 17.5624 22.4501 17.5624 22.25V12.8C16.7458 12.6167 15.9895 12.3167 15.2937 11.9C14.5979 11.4834 13.9874 10.9709 13.4624 10.3625L12.8374 13.525L14.6499 15.25C14.7416 15.3417 14.8124 15.4438 14.8624 15.5563C14.9124 15.6688 14.9374 15.7917 14.9374 15.925V22C14.9374 22.2584 14.8458 22.4792 14.6624 22.6625C14.4791 22.8459 14.2583 22.9375 13.9999 22.9375C13.7416 22.9375 13.5208 22.8459 13.3374 22.6625C13.1541 22.4792 13.0624 22.2584 13.0624 22V16.975L10.8624 14.875ZM6.46244 12.8875L5.31244 12.6625C5.06244 12.6209 4.8666 12.4917 4.72494 12.275C4.58327 12.0584 4.53744 11.8209 4.58744 11.5625L5.33744 7.63755C5.43744 7.08755 5.73119 6.67297 6.21869 6.3938C6.70619 6.11463 7.2291 6.02922 7.78744 6.13755C8.04577 6.18755 8.24369 6.3188 8.38119 6.5313C8.51869 6.7438 8.56244 6.97922 8.51244 7.23755L7.56244 12.1375C7.51244 12.3959 7.38119 12.598 7.16869 12.7438C6.95619 12.8896 6.72077 12.9375 6.46244 12.8875ZM13.4999 5.45005C12.9583 5.45005 12.4979 5.26047 12.1187 4.8813C11.7395 4.50213 11.5499 4.04172 11.5499 3.50005C11.5499 2.95838 11.7395 2.49797 12.1187 2.1188C12.4979 1.73963 12.9583 1.55005 13.4999 1.55005C14.0416 1.55005 14.502 1.73963 14.8812 2.1188C15.2604 2.49797 15.4499 2.95838 15.4499 3.50005C15.4499 4.04172 15.2604 4.50213 14.8812 4.8813C14.502 5.26047 14.0416 5.45005 13.4999 5.45005Z" fill="#D7D7D7"/>
</g>
</svg>
