<svg width="24" height="24" viewBox="0 0 24 24" fill="none" xmlns="http://www.w3.org/2000/svg">
<mask id="mask0_133_8543" style="mask-type:alpha" maskUnits="userSpaceOnUse" x="0" y="0" width="24" height="24">
<rect width="24" height="24" fill="#D9D9D9"/>
</mask>
<g mask="url(#mask0_133_8543)">
<path d="M18.8124 20.0876L13.9124 15.1876C13.7291 15.0042 13.6374 14.7834 13.6374 14.5251C13.6374 14.2667 13.7291 14.0459 13.9124 13.8626C14.0957 13.6792 14.3166 13.5876 14.5749 13.5876C14.8332 13.5876 15.0541 13.6792 15.2374 13.8626L20.1374 18.7626C20.3207 18.9459 20.4124 19.1667 20.4124 19.4251C20.4124 19.6834 20.3207 19.9042 20.1374 20.0876C19.9541 20.2709 19.7332 20.3626 19.4749 20.3626C19.2166 20.3626 18.9957 20.2709 18.8124 20.0876ZM7.32491 18.7501C6.96658 19.1084 6.54783 19.2792 6.06866 19.2626C5.58949 19.2459 5.21658 19.0376 4.94991 18.6376C3.89158 17.1042 3.31449 15.4251 3.21866 13.6001C3.12283 11.7751 3.50824 10.0584 4.37491 8.45006C4.42491 9.00006 4.56658 9.61881 4.79991 10.3063C5.03324 10.9938 5.34574 11.7167 5.73741 12.4751C6.12908 13.2334 6.59783 14.0084 7.14366 14.8001C7.68949 15.5917 8.28741 16.3709 8.93741 17.1376L7.32491 18.7501ZM10.2249 15.8501C9.44991 15.0834 8.77074 14.2396 8.18741 13.3188C7.60407 12.398 7.14574 11.5042 6.81241 10.6376C6.47908 9.77089 6.29158 8.98131 6.24991 8.26881C6.20824 7.55631 6.35824 7.02506 6.69991 6.67506C7.04158 6.31672 7.57283 6.15214 8.29366 6.18131C9.01449 6.21047 9.81449 6.39172 10.6937 6.72506C11.5728 7.05839 12.4749 7.51881 13.3999 8.10631C14.3249 8.69381 15.1666 9.37506 15.9249 10.1501L10.2249 15.8501ZM18.6749 4.91256C19.0666 5.17922 19.2728 5.55006 19.2937 6.02506C19.3145 6.50006 19.1457 6.91672 18.7874 7.27506L17.1999 8.86256C16.4499 8.20422 15.6791 7.61047 14.8874 7.08131C14.0957 6.55214 13.3207 6.08964 12.5624 5.69381C11.8041 5.29797 11.0812 4.98339 10.3937 4.75006C9.70616 4.51672 9.08324 4.37506 8.52491 4.32506C10.1249 3.49172 11.8374 3.12297 13.6624 3.21881C15.4874 3.31464 17.1582 3.87922 18.6749 4.91256Z" fill="#D7D7D7"/>
</g>
</svg>
