<svg width="25" height="24" viewBox="0 0 25 24" fill="none" xmlns="http://www.w3.org/2000/svg">
<mask id="mask0_133_8553" style="mask-type:alpha" maskUnits="userSpaceOnUse" x="0" y="0" width="25" height="24">
<rect x="0.5" width="24" height="24" fill="#D9D9D9"/>
</mask>
<g mask="url(#mask0_133_8553)">
<path d="M2.96239 16.325L6.83739 11.175C6.93122 11.05 7.04472 10.9563 7.17789 10.8938C7.31089 10.8313 7.4478 10.8 7.58864 10.8C7.72947 10.8 7.86614 10.8313 7.99864 10.8938C8.13097 10.9563 8.24389 11.05 8.33739 11.175L11.6249 15.575C11.7166 15.7 11.8291 15.7937 11.9624 15.8562C12.0957 15.9187 12.2374 15.95 12.3874 15.95C12.7819 15.95 13.066 15.7729 13.2396 15.4187C13.4131 15.0646 13.3791 14.7333 13.1374 14.425L11.1624 11.8125C11.0374 11.6458 10.9749 11.4583 10.9749 11.25C10.9749 11.0417 11.0374 10.8542 11.1624 10.6875L13.7374 7.25C13.8312 7.125 13.9447 7.03125 14.0779 6.96875C14.2109 6.90625 14.3478 6.875 14.4886 6.875C14.6295 6.875 14.7661 6.90625 14.8986 6.96875C15.031 7.03125 15.1439 7.125 15.2374 7.25L22.0374 16.325C22.2707 16.6333 22.3016 16.9604 22.1299 17.3063C21.9582 17.6521 21.6774 17.825 21.2874 17.825H3.71239C3.32239 17.825 3.04155 17.6521 2.86989 17.3063C2.69822 16.9604 2.72905 16.6333 2.96239 16.325Z" fill="#D7D7D7"/>
</g>
</svg>
