<svg width="25" height="24" viewBox="0 0 25 24" fill="none" xmlns="http://www.w3.org/2000/svg">
<mask id="mask0_133_8538" style="mask-type:alpha" maskUnits="userSpaceOnUse" x="0" y="0" width="25" height="24">
<rect x="0.5" width="24" height="24" fill="#D9D9D9"/>
</mask>
<g mask="url(#mask0_133_8538)">
<path d="M12.5 22C10.7333 22 9.29167 21.7208 8.175 21.1625C7.05833 20.6042 6.5 19.8833 6.5 19C6.5 18.6833 6.57083 18.3917 6.7125 18.125C6.85417 17.8583 7.06667 17.6083 7.35 17.375C7.58333 17.2083 7.8375 17.1417 8.1125 17.175C8.3875 17.2083 8.60833 17.3417 8.775 17.575C8.94167 17.8083 9.00417 18.0625 8.9625 18.3375C8.92083 18.6125 8.78333 18.8333 8.55 19C8.76667 19.2667 9.26667 19.5 10.05 19.7C10.8333 19.9 11.65 20 12.5 20C13.35 20 14.1667 19.9 14.95 19.7C15.7333 19.5 16.2333 19.2667 16.45 19C16.2167 18.8333 16.0792 18.6125 16.0375 18.3375C15.9958 18.0625 16.0583 17.8083 16.225 17.575C16.3917 17.3417 16.6125 17.2083 16.8875 17.175C17.1625 17.1417 17.4167 17.2083 17.65 17.375C17.9333 17.6083 18.1458 17.8583 18.2875 18.125C18.4292 18.3917 18.5 18.6833 18.5 19C18.5 19.8833 17.9417 20.6042 16.825 21.1625C15.7083 21.7208 14.2667 22 12.5 22ZM12.5 18.525C12.3 18.525 12.1 18.4917 11.9 18.425C11.7 18.3583 11.5167 18.2583 11.35 18.125C9.38333 16.5583 7.91667 15.0292 6.95 13.5375C5.98333 12.0458 5.5 10.5833 5.5 9.15C5.5 7.96667 5.7125 6.92917 6.1375 6.0375C6.5625 5.14583 7.10833 4.4 7.775 3.8C8.44167 3.2 9.19167 2.75 10.025 2.45C10.8583 2.15 11.6833 2 12.5 2C13.3167 2 14.1417 2.15 14.975 2.45C15.8083 2.75 16.5583 3.2 17.225 3.8C17.8917 4.4 18.4375 5.14583 18.8625 6.0375C19.2875 6.92917 19.5 7.96667 19.5 9.15C19.5 10.5833 19.0167 12.0458 18.05 13.5375C17.0833 15.0292 15.6167 16.5583 13.65 18.125C13.4833 18.2583 13.3 18.3583 13.1 18.425C12.9 18.4917 12.7 18.525 12.5 18.525ZM12.5 11C13.05 11 13.5208 10.8042 13.9125 10.4125C14.3042 10.0208 14.5 9.55 14.5 9C14.5 8.45 14.3042 7.97917 13.9125 7.5875C13.5208 7.19583 13.05 7 12.5 7C11.95 7 11.4792 7.19583 11.0875 7.5875C10.6958 7.97917 10.5 8.45 10.5 9C10.5 9.55 10.6958 10.0208 11.0875 10.4125C11.4792 10.8042 11.95 11 12.5 11Z" fill="#F0F0F0"/>
</g>
</svg>
