<svg width="24" height="24" viewBox="0 0 24 24" fill="none" xmlns="http://www.w3.org/2000/svg">
<mask id="mask0_133_8558" style="mask-type:alpha" maskUnits="userSpaceOnUse" x="0" y="0" width="24" height="24">
<rect width="24" height="24" fill="#D9D9D9"/>
</mask>
<g mask="url(#mask0_133_8558)">
<path d="M11.075 17.625L8.46245 20.2125C8.28745 20.3875 8.07078 20.475 7.81245 20.475C7.55412 20.475 7.33745 20.3792 7.16245 20.1875C6.97912 20.0042 6.88745 19.7875 6.88745 19.5375C6.88745 19.2875 6.98328 19.0667 7.17495 18.875L11.075 14.975V12.925H9.02495L5.09995 16.85C4.92495 17.025 4.71245 17.1125 4.46245 17.1125C4.21245 17.1125 3.99162 17.0209 3.79995 16.8375C3.61662 16.6625 3.52495 16.4459 3.52495 16.1875C3.52495 15.9292 3.61662 15.7084 3.79995 15.525L6.37495 12.925H3.11245C2.85412 12.925 2.63745 12.8355 2.46245 12.6563C2.28745 12.4771 2.19995 12.2542 2.19995 11.9875C2.19995 11.7292 2.28953 11.5084 2.4687 11.325C2.64787 11.1417 2.87078 11.05 3.13745 11.05H6.37495L3.78745 8.46255C3.61245 8.28755 3.52495 8.07088 3.52495 7.81255C3.52495 7.55422 3.62078 7.33338 3.81245 7.15005C3.99578 6.97505 4.21245 6.88755 4.46245 6.88755C4.71245 6.88755 4.93328 6.97922 5.12495 7.16255L9.02495 11.05H11.075V9.00005L7.14995 5.10005C6.97495 4.92505 6.88745 4.71255 6.88745 4.46255C6.88745 4.21255 6.97912 3.99172 7.16245 3.80005C7.33745 3.61672 7.55412 3.52505 7.81245 3.52505C8.07078 3.52505 8.29162 3.61672 8.47495 3.80005L11.075 6.35005V3.11255C11.075 2.85422 11.1645 2.63338 11.3437 2.45005C11.5229 2.26672 11.7458 2.17505 12.0125 2.17505C12.2708 2.17505 12.4916 2.26672 12.675 2.45005C12.8583 2.63338 12.95 2.85422 12.95 3.11255V6.35005L15.5375 3.78755C15.7125 3.61255 15.9291 3.52505 16.1875 3.52505C16.4458 3.52505 16.6666 3.61672 16.85 3.80005C17.025 3.99172 17.1125 4.21255 17.1125 4.46255C17.1125 4.71255 17.0208 4.92922 16.8375 5.11255L12.95 9.00005V11.05H15L18.9 7.15005C19.075 6.97505 19.2875 6.88755 19.5375 6.88755C19.7875 6.88755 20.0083 6.97922 20.2 7.16255C20.3833 7.33755 20.475 7.55422 20.475 7.81255C20.475 8.07088 20.3833 8.29172 20.2 8.47505L17.65 11.05H20.8875C21.1458 11.05 21.3666 11.1417 21.55 11.325C21.7333 11.5084 21.825 11.7292 21.825 11.9875C21.825 12.2542 21.7333 12.4771 21.55 12.6563C21.3666 12.8355 21.1458 12.925 20.8875 12.925H17.65L20.2125 15.5375C20.3875 15.7125 20.475 15.9292 20.475 16.1875C20.475 16.4459 20.3833 16.6625 20.2 16.8375C20.0083 17.0209 19.7875 17.1125 19.5375 17.1125C19.2875 17.1125 19.0708 17.0167 18.8875 16.825L15 12.925H12.95V14.975L16.85 18.9C17.025 19.075 17.1125 19.2875 17.1125 19.5375C17.1125 19.7875 17.0208 20.0084 16.8375 20.2C16.6625 20.3834 16.4458 20.475 16.1875 20.475C15.9291 20.475 15.7083 20.3834 15.525 20.2L12.95 17.625V20.8875C12.95 21.1459 12.8583 21.3626 12.675 21.5375C12.4916 21.7125 12.2708 21.8 12.0125 21.8C11.7458 21.8 11.5229 21.7105 11.3437 21.5313C11.1645 21.3521 11.075 21.1292 11.075 20.8625V17.625Z" fill="#D7D7D7"/>
</g>
</svg>
